<svg width="20" height="20" viewBox="0 0 20 20" fill="none" xmlns="http://www.w3.org/2000/svg">
<path d="M7.48371 8.12799C8.01366 9.23177 8.73609 10.2663 9.65101 11.1812C10.5659 12.0961 11.6004 12.8185 12.7042 13.3485C12.7991 13.3941 12.8466 13.4169 12.9067 13.4344C13.1202 13.4966 13.3823 13.4519 13.5631 13.3224C13.6139 13.286 13.6575 13.2425 13.7445 13.1555C14.0107 12.8893 14.1438 12.7562 14.2776 12.6691C14.7824 12.341 15.4331 12.341 15.9378 12.6691C16.0717 12.7562 16.2048 12.8893 16.471 13.1555L16.6193 13.3038C17.024 13.7085 17.2263 13.9108 17.3362 14.1281C17.5548 14.5603 17.5548 15.0706 17.3362 15.5028C17.2263 15.7201 17.024 15.9224 16.6193 16.3271L16.4993 16.4471C16.096 16.8504 15.8944 17.052 15.6203 17.206C15.3161 17.3769 14.8436 17.4997 14.4947 17.4987C14.1803 17.4978 13.9654 17.4368 13.5356 17.3148C11.2259 16.6592 9.04643 15.4223 7.22817 13.604C5.4099 11.7858 4.17298 9.60629 3.51742 7.29658C3.39543 6.8668 3.33444 6.65191 3.3335 6.33748C3.33246 5.98858 3.45533 5.51612 3.62621 5.21192C3.78021 4.93779 3.98184 4.73615 4.38511 4.33288L4.50514 4.21286C4.90979 3.8082 5.11212 3.60588 5.32941 3.49597C5.76157 3.27739 6.27192 3.27739 6.70408 3.49597C6.92138 3.60588 7.1237 3.8082 7.52836 4.21286L7.67673 4.36123C7.94293 4.62743 8.07603 4.76053 8.16305 4.89438C8.49122 5.39912 8.49122 6.04982 8.16305 6.55456C8.07603 6.6884 7.94293 6.8215 7.67674 7.0877C7.5897 7.17474 7.54618 7.21826 7.50975 7.26913C7.3803 7.44992 7.3356 7.71204 7.39783 7.92551C7.41534 7.98558 7.43813 8.03305 7.48371 8.12799Z" stroke="#272D37" stroke-width="1.67" stroke-linecap="round" stroke-linejoin="round"/>
</svg>
