<svg width="26" height="25" viewBox="0 0 26 25" fill="none" xmlns="http://www.w3.org/2000/svg">
<path d="M13 0.3125C10.5895 0.3125 8.23322 1.02728 6.22899 2.36646C4.22477 3.70564 2.66267 5.60907 1.74022 7.83605C0.817781 10.063 0.576427 12.5135 1.04668 14.8777C1.51694 17.2418 2.67769 19.4134 4.38214 21.1179C6.08659 22.8223 8.2582 23.9831 10.6223 24.4533C12.9865 24.9236 15.437 24.6822 17.664 23.7598C19.8909 22.8373 21.7944 21.2752 23.1335 19.271C24.4727 17.2668 25.1875 14.9105 25.1875 12.5C25.1841 9.26872 23.899 6.17076 21.6141 3.8859C19.3292 1.60104 16.2313 0.315912 13 0.3125ZM17.6875 13.4375H8.31251C8.06386 13.4375 7.82541 13.3387 7.64959 13.1629C7.47378 12.9871 7.37501 12.7486 7.37501 12.5C7.37501 12.2514 7.47378 12.0129 7.64959 11.8371C7.82541 11.6613 8.06386 11.5625 8.31251 11.5625H17.6875C17.9361 11.5625 18.1746 11.6613 18.3504 11.8371C18.5262 12.0129 18.625 12.2514 18.625 12.5C18.625 12.7486 18.5262 12.9871 18.3504 13.1629C18.1746 13.3387 17.9361 13.4375 17.6875 13.4375Z" fill="#301534"/>
</svg>
