<svg width="120" height="21" viewBox="0 0 120 21" fill="none" xmlns="http://www.w3.org/2000/svg">
<path fill-rule="evenodd" clip-rule="evenodd" d="M90.9063 13.9347C92.2176 17.1789 95.1171 19.5017 98.6093 20.1147C100.651 20.4692 103.705 19.9297 105.728 18.8544C107.41 17.9584 107.679 17.6216 107.391 16.7882C107.253 16.3848 107.162 14.4772 107.162 11.9263V7.72235L98.4712 7.60386V12.1789L101.678 12.1544L101.747 12.9603C101.829 13.9435 101.604 14.1139 100.233 14.1139C98.9099 14.1139 97.7679 13.4852 96.9307 12.2935C96.3892 11.5258 96.303 11.2183 96.3098 10.1235C96.3226 8.43329 96.9228 7.27973 98.2215 6.44149C99.1312 5.85786 99.2967 5.82261 100.747 5.90095C101.765 5.95677 102.742 6.16633 103.591 6.51298L104.882 7.03786V0L101.521 0.106738C97.7679 0.225227 96.35 0.548379 94.556 1.69802C92.5339 2.99846 90.9817 5.2331 90.405 7.68318C90.0015 9.40176 90.2307 12.2651 90.9063 13.9347ZM3.69372 12.2856C3.65749 15.9666 3.54684 19.1433 3.45283 19.3402C3.29027 19.676 3.49983 19.7035 6.50221 19.6995H9.72883V0.0430869L0.114572 0.153742L0.0548379 2.94754L0 5.73937L1.88016 5.66397L3.75737 5.59347L3.69372 12.2856ZM10.9736 9.87572V0.0519002H19.451V5.77169L17.1752 5.58074V7.69885H20.6907V0.0430869H26.9011V19.6917H20.2922L20.4939 19.1619C20.6036 18.8701 20.6956 17.2416 20.6956 15.5436V12.4541H17.1556L17.2193 15.714C17.2545 17.507 17.3613 19.1345 17.4563 19.3323C17.6178 19.6682 17.4005 19.6946 14.3002 19.6946H10.9697V9.87572H10.9736ZM108.13 0.513126C108.355 1.13691 108.346 18.877 108.122 19.3402C107.956 19.68 108.3 19.7035 113.964 19.7123H119.984V13.873L119.518 14.016C118.914 14.2011 114.916 14.4185 114.564 14.2833C114.374 14.2128 114.315 13.8524 114.367 13.0906L114.443 12.0007L115.817 12.1143C116.575 12.1789 117.357 12.2935 117.555 12.3718C117.887 12.503 117.918 12.3082 117.918 10.0451V7.57644L114.403 7.7576V5.22135L116.007 5.22625C117.504 5.2331 118.384 5.35649 119.53 5.72371L120 5.87353L119.882 0.153742L107.959 0.0430869L108.13 0.513126ZM51.2423 19.0285C48.378 12.1786 43.4563 1.08178 43.0812 0.635238L42.5877 0.0467101H49.5355C53.3555 0.0467101 56.4842 0.118195 56.4842 0.200452C56.4842 0.287605 56.0768 1.42549 55.5833 2.73279L54.6834 5.11138L53.1029 5.17112C52.2333 5.20245 51.5224 5.26512 51.5224 5.30821C51.5224 5.50504 53.4622 10.7137 53.5886 10.8586C53.6679 10.9497 54.6432 8.55246 55.7615 5.53442L57.7915 0.0467101H73.8688V3.06965C73.8688 5.87324 73.8414 6.07888 73.5055 5.92514C73.3087 5.83407 72.0513 5.72341 70.7127 5.67935L68.2832 5.60101V7.75731L71.7996 7.57713V12.4195L70.8831 12.2256C70.3807 12.1189 69.611 12.0601 69.1762 12.0954L68.386 12.1581L68.2597 14.5366H70.1046C71.218 14.5366 72.301 14.4133 72.8298 14.2252C73.3116 14.0549 73.7435 13.9119 73.7856 13.9119C73.8286 13.9119 73.8649 15.2153 73.8649 16.8075V19.7032H67.8415C62.9071 19.7032 61.8564 19.6571 62.0424 19.4348C62.2872 19.1381 62.4929 4.81075 62.2481 4.81075C62.1727 4.81075 60.6832 8.16076 58.9411 12.257L55.7733 19.7032H51.5224L51.2423 19.0285ZM74.6552 0.046906L74.8246 0.514007C75.0499 1.13289 75.046 18.8749 74.8178 19.3352C74.6513 19.672 74.8765 19.6994 78.1864 19.6994C81.6275 19.6994 81.7303 19.6887 81.5207 19.3009C81.4023 19.0796 81.3073 17.7723 81.3073 16.3925C81.3073 13.8886 81.3073 13.8856 81.7734 14.0188C82.643 14.2764 83.7799 15.1528 84.3331 15.9812C84.953 16.9223 85.2057 18.5664 84.8384 19.2607L84.5975 19.6994H88.1336C90.2037 19.6994 91.6207 19.6201 91.5541 19.5144C91.4914 19.4106 91.2701 18.305 91.0567 17.0564C90.5866 14.3116 89.7494 12.5607 88.4137 11.5423L87.5294 10.8627L88.0347 10.1831C89.721 7.89656 89.4526 4.06868 87.4658 2.08472C85.85 0.469941 84.009 0.058657 78.4469 0.0557192L74.6552 0.046906ZM27.8649 0.904434C28.284 2.12947 28.1841 18.8394 27.7542 19.3593C27.4938 19.6756 27.9168 19.704 33.4985 19.704H39.514V13.8658L39.0479 14.0156C38.7913 14.0978 37.5311 14.2124 36.2433 14.2682L33.9049 14.3701L33.9676 13.2596L34.0312 12.1521L34.8215 12.0874C35.2563 12.0512 36.026 12.1119 36.5273 12.2187L37.4439 12.4106V7.56822L35.6744 7.66418L33.9049 7.75427L34.0312 5.31986L35.6871 5.26503C36.6223 5.23271 37.816 5.33357 38.428 5.49417L39.514 5.77815V0.0515085H27.5692L27.8649 0.904434ZM82.6547 5.52286C82.2434 5.35149 81.9546 5.2379 81.7577 5.22615C81.319 5.19775 81.3073 5.65996 81.3073 7.07889V8.93946H81.9399C82.3658 8.93946 82.7732 8.74557 83.1796 8.33918C84.1353 7.38245 83.8866 6.03501 82.6547 5.52286Z" fill="#DB0E31"/>
</svg>
