<svg width="40" height="25" viewBox="0 0 40 25" fill="none" xmlns="http://www.w3.org/2000/svg">
<path d="M10.0114 24.5114C8.05682 24.5038 6.375 24.0227 4.96591 23.0682C3.56439 22.1136 2.48485 20.7311 1.72727 18.9205C0.977273 17.1098 0.606061 14.9318 0.613636 12.3864C0.613636 9.84848 0.988636 7.68561 1.73864 5.89773C2.49621 4.10985 3.57576 2.75 4.97727 1.81818C6.38636 0.878787 8.06439 0.40909 10.0114 0.40909C11.9583 0.40909 13.6326 0.878787 15.0341 1.81818C16.4432 2.75758 17.5265 4.12121 18.2841 5.90909C19.0417 7.68939 19.4167 9.84848 19.4091 12.3864C19.4091 14.9394 19.0303 17.1212 18.2727 18.9318C17.5227 20.7424 16.447 22.125 15.0455 23.0795C13.6439 24.0341 11.9659 24.5114 10.0114 24.5114ZM10.0114 20.4318C11.3447 20.4318 12.4091 19.7614 13.2045 18.4205C14 17.0795 14.3939 15.0682 14.3864 12.3864C14.3864 10.6212 14.2045 9.15151 13.8409 7.97727C13.4848 6.80303 12.9773 5.92045 12.3182 5.32954C11.6667 4.73864 10.8977 4.44318 10.0114 4.44318C8.68561 4.44318 7.625 5.10606 6.82955 6.43182C6.03409 7.75758 5.63258 9.74242 5.625 12.3864C5.625 14.1742 5.80303 15.6667 6.15909 16.8636C6.52273 18.053 7.03409 18.947 7.69318 19.5455C8.35227 20.1364 9.125 20.4318 10.0114 20.4318ZM22.9176 24V20.4545L31.2017 12.7841C31.9063 12.1023 32.4972 11.4886 32.9744 10.9432C33.4593 10.3977 33.8267 9.86364 34.0767 9.34091C34.3267 8.81061 34.4517 8.23864 34.4517 7.625C34.4517 6.94318 34.2964 6.35606 33.9858 5.86364C33.6752 5.36364 33.2509 4.98106 32.7131 4.71591C32.1752 4.44318 31.5653 4.30682 30.8835 4.30682C30.1714 4.30682 29.5502 4.45076 29.0199 4.73864C28.4896 5.02651 28.0805 5.43939 27.7926 5.97727C27.5047 6.51515 27.3608 7.1553 27.3608 7.89773H22.6903C22.6903 6.375 23.035 5.05303 23.7244 3.93182C24.4138 2.81061 25.3797 1.94318 26.6222 1.32954C27.8646 0.715908 29.2964 0.40909 30.9176 0.40909C32.5843 0.40909 34.035 0.704545 35.2699 1.29545C36.5123 1.87879 37.4782 2.68939 38.1676 3.72727C38.857 4.76515 39.2017 5.95454 39.2017 7.29545C39.2017 8.17424 39.0275 9.04167 38.679 9.89773C38.3381 10.7538 37.7282 11.7045 36.8494 12.75C35.9706 13.7879 34.732 15.0341 33.1335 16.4886L29.7358 19.8182V19.9773H39.5085V24H22.9176Z" fill="#C5C6CE"/>
</svg>
